<?xml version="1.0" encoding="utf-8"?>
<!-- Generator: Adobe Illustrator 26.1.0, SVG Export Plug-In . SVG Version: 6.00 Build 0)  -->
<svg version="1.1" id="favicon" xmlns="http://www.w3.org/2000/svg" xmlns:xlink="http://www.w3.org/1999/xlink" x="0px" y="0px"
	 viewBox="0 0 195 196" style="enable-background:new 0 0 195 196;" xml:space="preserve">
<style type="text/css">
	.st0{fill:#FFFFFF;}
	.st1{fill-rule:evenodd;clip-rule:evenodd;}
</style>
<rect id="background" x="5.7" y="6.9" class="st0" width="183.5" height="182.1"/>
<g id="icon">
	<path id="_x30_" d="M75.4,143.4c2-5.6,3.4-12.1,4.1-19.6c0.7-7.5,1.1-16.6,1.1-27.2s-0.4-19.5-1.1-27.2s-2.1-14.2-4.2-19.6
		c-2-5.3-4.7-9.3-8.2-12s-7.9-4-13.3-4s-9.8,1.3-13.3,4s-6.3,6.7-8.3,12.2c-1.9,5.1-3.3,11.7-4,19.9s-1.1,17.2-1.1,26.9
		c0,10.7,0.3,19.7,0.9,26.9s2,13.7,4,19.4c1.9,5.4,4.5,9.5,8,12.3s8,4.2,13.7,4.2c5.4,0,9.8-1.3,13.4-4S73.4,148.8,75.4,143.4z"/>
	<path id="b_00000119825554671575174060000010335210847554859424_" d="M177.9,100.2c-4.7-7.2-11.2-11.9-19.4-14v-0.8
		c4.9-3.2,8.8-7.4,11.8-12.7c2.9-5.3,4.4-11.6,4.4-19.1c0-6.6-1-12.3-3-17.1s-5.3-8.7-9.7-11.7c-4-2.7-8.2-4.5-12.6-5.3
		s-11-1.3-19.9-1.3H65.1c9.7,2.6,17.2,8.7,22.4,18.5c7,13.2,10.6,33.2,10.6,60s-3.6,47.8-10.7,60.7c-5.8,10.5-14.3,16.7-25.4,18.7
		h74.7c8.4,0,15.4-1,20.9-3s10.5-5.3,15.1-10c3.9-3.9,6.9-8.8,9.2-14.8s3.4-12.9,3.4-20.8C185,116.4,182.6,107.4,177.9,100.2
		L177.9,100.2L177.9,100.2z M109.5,36h19.3c5.4,0,9.9,0.2,13.5,0.7s6.7,1.6,9.3,3.6c2.2,1.6,3.8,3.7,4.7,6.4c1,2.6,1.5,5.8,1.5,9.6
		c0,4.6-0.5,8.6-1.6,11.9c-1.1,3.4-2.9,6.1-5.4,8.2c-2.6,2.1-5.3,3.5-8.3,4.2s-7,1-12.1,1h-20.9C109.5,81.6,109.5,36,109.5,36z
		 M166,141.9c-1.4,3.5-3.6,6.7-6.7,9.4c-2.9,2.5-6.6,4.3-11.1,5.2c-4.5,1-10.3,1.4-17.4,1.4h-21.3V99.2h25.4c5.3,0,9.9,0.3,13.6,0.8
		s6.9,1.7,9.5,3.4c3.9,2.6,6.5,5.8,8,9.5s2.2,8.8,2.2,15.2C168.2,133.8,167.5,138.4,166,141.9z"/>
	<path id="box" class="st1" d="M171.6,189H24.4C14.8,189,7,181.2,7,171.6l0,0V24.4C7,14.8,14.8,7,24.4,7h147.2
		c9.6,0,17.4,7.8,17.4,17.4l0,0v147.2C189,181.2,181.2,189,171.6,189L171.6,189z M173.3,0H21.7C9.7,0,0,9.7,0,21.7v152.6
		c0,12,9.7,21.7,21.7,21.7h151.6c12,0,21.7-9.7,21.7-21.7V21.7C195,9.7,185.3,0,173.3,0L173.3,0z"/>
</g>
</svg>
